# xmcd
#
# Track frame offsets:
#	150
#	4605
#	29735
#	66103
#	70198
#	105264
#	117456
#	148302
#	193816
#	217792
#	245021
#	262742
#	289689
#	299437
#	318257
#	341745
#
# Disc length: 4614 seconds
#
# Revision: 0
# Processed by: cddbd v1.5.1PL0 Copyright (c) Steve Scherf et al.
# Submitted via: audiograbber 1.83.01
#
DISCID=f7120410
DTITLE=Kevin Moore - Every Breath We Take
DYEAR=2004
DGENRE=Contemporary Gospel
TTITLE0=Introduction
TTITLE1=I Need You
TTITLE2=Look and Live
TTITLE3=Remarks by Dr. J. Alfred Smith Jr
TTITLE4=Available To You
TTITLE5=Spiritual Eating Disorder by Kevin Moore
TTITLE6=More Than Anything
TTITLE7=Last Call
TTITLE8=Every Breath We Take
TTITLE9=Word of God by  Dr. Cynthia James
TTITLE10=Praise Him
TTITLE11=Peace Be Still
TTITLE12=Prayer
TTITLE13=Last Call (Reprise)
TTITLE14=Every Breath We Take (reprise)
TTITLE15=Closing Prayer
EXTD=
EXTT0=
EXTT1=
EXTT2=
EXTT3=
EXTT4=
EXTT5=
EXTT6=
EXTT7=
EXTT8=
EXTT9=
EXTT10=
EXTT11=
EXTT12=
EXTT13=
EXTT14=
EXTT15=
PLAYORDER=
